<svg viewBox="0 0 100 100" fill="none" xmlns="http://www.w3.org/2000/svg">
  <defs>
    <linearGradient id="csssBg" x1="10" y1="10" x2="90" y2="90" gradientUnits="userSpaceOnUse">
      <stop stop-color="#b45309" />
      <stop offset="0.5" stop-color="#92400e" />
      <stop offset="1" stop-color="#451a03" />
    </linearGradient>
    <linearGradient id="shieldGrad" x1="20" y1="20" x2="80" y2="80" gradientUnits="userSpaceOnUse">
      <stop stop-color="#fde047" />
      <stop offset="0.5" stop-color="#f59e0b" />
      <stop offset="1" stop-color="#b45309" />
    </linearGradient>
    <filter id="csssGlow" x="0" y="0" width="100" height="100" filterUnits="userSpaceOnUse">
      <feDropShadow dx="0" dy="0" stdDeviation="4" flood-color="#fbbf24" flood-opacity="0.5" />
    </filter>
  </defs>
  <rect width="100" height="100" rx="50" fill="url(#csssBg)" />
  <circle cx="50" cy="50" r="42" stroke="#fde047" stroke-width="1.8" />
  <!-- Safety Shield -->
  <path d="M50 22L76 34V54C76 68 50 78 50 78C50 78 24 68 24 54V34L50 22Z" fill="#1c0f04" stroke="url(#shieldGrad)" stroke-width="2.5" filter="url(#csssGlow)" />
  <!-- Chemical Safety Flask with Beaker Vapor -->
  <path d="M47 38H53V44L61 58C62 59.5 61 62 59 62H41C39 62 38 59.5 39 58L47 44V38Z" stroke="#fde047" stroke-width="2" fill="#78350f" />
  <circle cx="50" cy="53" r="2.5" fill="#fef08a" />
  <circle cx="45" cy="57" r="2" fill="#fef08a" />
  <circle cx="55" cy="56" r="2" fill="#fef08a" />
</svg>
